<?xml version="1.0" encoding="UTF-8"?>
<!DOCTYPE svg PUBLIC "-//W3C//DTD SVG 1.1//EN" "http://www.w3.org/Graphics/SVG/1.1/DTD/svg11.dtd">
<!-- Creator: CorelDRAW -->
<svg xmlns="http://www.w3.org/2000/svg" xml:space="preserve" width="1500px" height="1500px" style="shape-rendering:geometricPrecision; text-rendering:geometricPrecision; image-rendering:optimizeQuality; fill-rule:evenodd; clip-rule:evenodd"
viewBox="0 0 1500 1500"
 xmlns:xlink="http://www.w3.org/1999/xlink">
 <defs>
  <style type="text/css">
   <![CDATA[
    .fil0 {fill:#663399}
    .fil1 {fill:white}
   ]]>
  </style>
 </defs>
 <g id="Layer_x0020_1">
  <metadata id="CorelCorpID_0Corel-Layer"/>
  <circle class="fil0 str0" cx="750" cy="750" r="695"/>
  <path class="fil1" d="M642.715 408.231c-4.98006,2.55782 -31,23.8056 -34.0312,41.1352 -1.0925,6.24203 0.464339,15.9785 -4.00393,20.5687 0,34.5633 4.34626,13.3958 14.0126,43.1914 6.9922,21.5528 12.0107,17.4212 12.0107,37.0228 -23.8474,24.5015 -84.0758,3.9949 -84.0758,63.759 0,24.4981 -0.201101,29.8996 56.0506,45.2499 84.3459,23.0158 170.115,-16.4541 170.154,-16.4541l8.00674 -8.22705c0,-23.2915 14.4679,-58.2028 -50.0447,-71.9872 -15.9762,-3.41419 -21.3031,-4.30785 -36.032,-14.3979l0 -6.16972c19.239,-19.7689 6.65214,-22.5481 24.0213,-47.3061 2.98939,-4.26152 3.33962,-17.1692 4.00393,-22.6249l-4.00393 0c0,-37.1144 -2.52054,-61.7763 -50.0447,-65.8164 -8.99981,-0.76486 -17.4155,-0.15478 -26.0233,2.0562zm423.56 -101.513l-581.529 0c-9.01676,0 -17.228,3.80396 -23.1898,9.92962 -5.96184,6.12566 -9.66412,14.5617 -9.66412,23.827l0 858.592c0,9.26418 3.70228,17.7002 9.66412,23.827 5.96184,6.12566 14.1731,9.92849 23.1898,9.92849l339.025 0c5.39582,0 10.3815,-7.21815 10.3815,-12.762l0 -213.164c0,-27.666 19.2966,-49.1375 45.3775,-48.8392l204.184 2.33525c7.28255,0.0824738 15.4147,-8.42928 15.4147,-15.9129l0 -604.004c0,-9.26531 -3.70228,-17.7014 -9.66412,-23.827 -5.96184,-6.12566 -14.1731,-9.92962 -23.1898,-9.92962zm-260.222 169.323l201.581 0 0 30.1267 -201.581 0 0 -30.1267zm0 125.525l201.581 0 0 30.1267 -201.581 0 0 -30.1267zm-262.666 124.27l464.246 0 0 30.1255 -464.246 0 0 -30.1255zm0 126.779l464.246 0 0 30.1267 -464.246 0 0 -30.1267zm0 123.015l255.336 0 0 30.1255 -255.336 0 0 -30.1255zm0 128.034l255.336 0 0 30.1267 -255.336 0 0 -30.1267zm324.601 120.695l223.711 -231.759 -200.192 -2.29006c-14.738,-0.169467 -23.5186,12.2445 -23.5186,26.6266l0 207.423z"/>
 </g>
</svg>
